<svg xmlns="http://www.w3.org/2000/svg" xmlns:xlink="http://www.w3.org/1999/xlink" width="0" height="0" style="position:absolute">
    <defs>
      
        <svg width="170.277" height="43.083" viewBox="0 0 170.277 43.083" id="logo"><path fill="#FFF" d="M56.821 13.516c3.321 0 5.159 1.328 5.956 3.764.133.421.044.598-.376.753l-.908.31c-.42.133-.597.066-.753-.354-.553-1.66-1.705-2.48-3.919-2.48-2.635 0-4.052 1.329-4.052 3.653v5.092c0 2.302 1.439 3.653 4.052 3.653 2.258 0 3.388-.863 3.941-2.524.155-.443.332-.531.753-.376l.908.332c.421.133.531.332.376.753-.797 2.435-2.613 3.808-5.978 3.808-3.985 0-6.199-2.17-6.199-5.668v-5.048c0-3.499 2.192-5.668 6.199-5.668zM66.473 29.567h-.908c-.398 0-.531-.133-.531-.531V13.715c0-.399.133-.531.531-.531h.908c.398 0 .531.133.531.531v15.321c0 .398-.133.531-.531.531zM74.442 17.811c3.188 0 4.982 1.616 4.982 4.251v3.609c0 2.613-1.793 4.229-4.982 4.229-3.122 0-4.96-1.616-4.96-4.229v-3.609c.001-2.635 1.838-4.251 4.96-4.251zm0 1.793c-1.86 0-2.989.908-2.989 2.435v3.631c0 1.527 1.129 2.435 2.989 2.435 1.882 0 3.011-.908 3.011-2.435v-3.631c.001-1.527-1.128-2.435-3.011-2.435zM91.069 18.741l-4.273 10.384c-.155.376-.332.487-.731.487h-.554c-.398 0-.576-.111-.73-.487l-4.273-10.362c-.199-.487-.088-.62.443-.62h.664c.62 0 .775.111.93.531l2.591 6.399c.332.908.532 1.949.62 2.125h.089c.066-.177.266-1.196.598-2.103l2.568-6.421c.155-.421.31-.531.93-.531h.708c.486 0 .619.111.42.598zM97.134 17.811c3.41 0 5.004 1.971 5.004 4.583v1.284c0 .465-.199.775-.819.775H94.1v1.063c0 1.683 1.019 2.657 2.967 2.657 1.572 0 2.524-.598 3.077-1.528.266-.376.465-.421.863-.199l.598.31c.398.199.443.487.199.863-.775 1.351-2.214 2.28-4.76 2.28-3.454 0-4.915-1.904-4.915-4.605v-2.745c0-2.989 1.728-4.738 5.005-4.738zm0 1.682c-1.993 0-3.033 1.063-3.033 2.79v.642h6.067v-.642c-.001-1.727-1.02-2.79-3.034-2.79zM109.929 17.811c.399 0 .531.133.531.531v.753c0 .399-.132.531-.531.531h-.775a8.336 8.336 0 0 0-2.546.377c-.288.11-.31.243-.31.443v8.591c0 .398-.133.531-.532.531h-.93c-.376 0-.509-.133-.509-.531v-9.299c0-.686.155-.952.841-1.24.819-.31 2.104-.642 4.052-.686h.709zM115.84 17.811c2.569 0 3.963.952 4.627 2.391.199.399.088.62-.265.775l-.753.31c-.399.177-.509.111-.731-.244-.421-.863-1.129-1.439-2.834-1.439s-2.524.531-2.524 1.594c0 1.417 1.174 1.594 3.011 1.749 2.524.244 4.384.797 4.384 3.41 0 2.103-1.527 3.542-4.627 3.542-2.524 0-4.163-.908-4.849-2.723-.155-.354-.066-.576.332-.708l.753-.266c.354-.111.531-.066.708.332.443 1.151 1.439 1.594 2.989 1.594 1.882 0 2.768-.598 2.768-1.683 0-1.328-1.085-1.572-2.944-1.749-2.214-.221-4.495-.598-4.495-3.454-.001-2.059 1.505-3.431 4.45-3.431z"></path><path fill="#7CA732" d="M137.978 14.423v.841c0 .421-.155.576-.575.576h-4.185v13.152c0 .421-.132.576-.575.576h-.974c-.443 0-.576-.155-.576-.576V15.84h-4.185c-.443 0-.576-.155-.576-.576v-.841c0-.421.133-.576.576-.576h10.495c.42 0 .575.156.575.576zM142.051 17.811c3.41 0 5.004 1.971 5.004 4.583v1.284c0 .465-.199.775-.819.775h-7.218v1.063c0 1.683 1.019 2.657 2.967 2.657 1.572 0 2.524-.598 3.078-1.528.265-.376.465-.421.863-.199l.598.31c.398.199.443.487.199.863-.775 1.351-2.214 2.28-4.76 2.28-3.454 0-4.915-1.904-4.915-4.605v-2.745c-.001-2.989 1.726-4.738 5.003-4.738zm0 1.682c-1.993 0-3.033 1.063-3.033 2.79v.642h6.067v-.642c-.001-1.727-1.019-2.79-3.034-2.79zM153.851 17.811c2.679 0 4.118 1.218 4.672 2.967.155.421.022.62-.354.753l-.775.244c-.398.177-.598.044-.753-.354-.398-1.218-1.24-1.86-2.878-1.86-1.926 0-2.878.974-2.878 2.613v3.343c0 1.638.974 2.635 2.878 2.635 1.594 0 2.502-.686 2.9-1.926.177-.421.332-.487.753-.354l.775.221c.398.155.531.332.376.753-.708 1.971-2.214 3.055-4.849 3.055-3.277 0-4.827-1.705-4.827-4.472v-3.166c0-2.748 1.594-4.452 4.96-4.452zM162.683 13.715v4.583c.465-.221 1.66-.487 3.1-.487 3.099 0 4.494 1.616 4.494 4.384v6.842c0 .398-.133.531-.531.531h-.908c-.399 0-.531-.133-.531-.531v-6.775c0-1.705-.93-2.635-2.79-2.635-1.24 0-2.347.266-2.834.509v8.901c0 .398-.133.531-.509.531h-.93c-.399 0-.531-.133-.531-.531V13.715c0-.399.132-.531.531-.531h.93c.376-.001.509.132.509.531z"></path><g><linearGradient id="logo-a" gradientUnits="userSpaceOnUse" x1="159.97" y1="23.504" x2="159.97" y2="4.433" gradientTransform="rotate(45.001 93.074 -144.597)"><stop offset="0" stop-color="#649047"></stop><stop offset="1" stop-color="#7ca732"></stop></linearGradient><path fill="url(#logo-a)" d="M36.95 16.21c.634-.67 1.617-1.826 1.967-2.334.294-.425-.121-1.993-1.436-3.307-1.167-1.219-2.78-1.802-3.069-1.899-.097-.289-.681-1.902-1.899-3.069-1.314-1.314-2.882-1.729-3.307-1.436-.507.35-1.664 1.333-2.334 1.967-.718.68-1.507 1.541-2.108 2.227-.512.585-1.796 2.643-2.14 3.508-1.809 4.544-1.126 9.587-1.111 9.698l-.002.002h.003v.003l.002-.002c.111.015 5.154.698 9.698-1.111.865-.344 2.923-1.628 3.508-2.14.687-.599 1.548-1.388 2.228-2.107z"></path><defs><path id="logo-b" d="M36.95 16.21c.634-.67 1.617-1.826 1.967-2.334.294-.425-.121-1.993-1.436-3.307-1.167-1.219-2.78-1.802-3.069-1.899-.097-.289-.681-1.902-1.899-3.069-1.314-1.314-2.882-1.729-3.307-1.436-.507.35-1.664 1.333-2.334 1.967-.718.68-1.507 1.541-2.108 2.227-.512.585-1.796 2.643-2.14 3.508-1.809 4.544-1.126 9.587-1.111 9.698l-.002.002h.003v.003l.002-.002c.111.015 5.154.698 9.698-1.111.865-.344 2.923-1.628 3.508-2.14.687-.599 1.548-1.388 2.228-2.107z"></path></defs><clipPath id="logo-c"><use xlink:href="#b" overflow="visible"></use></clipPath><linearGradient id="logo-d" gradientUnits="userSpaceOnUse" x1="165.217" y1="24.433" x2="165.217" y2="3.532" gradientTransform="rotate(45.001 93.074 -144.597)"><stop offset=".379" stop-color="#fff" stop-opacity="0"></stop><stop offset="1" stop-color="#fff"></stop></linearGradient><path opacity=".2" clip-path="url(#c)" fill="url(#logo-d)" d="M28.303 29.676L20.828 22.2l14.78-14.779 7.475 7.475z"></path><linearGradient id="logo-e" gradientUnits="userSpaceOnUse" x1="26.181" y1="-469.28" x2="26.181" y2="-488.351" gradientTransform="rotate(-134.999 125.523 -222.93)"><stop offset="0" stop-color="#649047"></stop><stop offset="1" stop-color="#7ca732"></stop></linearGradient><path fill="url(#logo-e)" d="M6.133 26.873c-.634.67-1.617 1.826-1.967 2.334-.294.425.121 1.993 1.436 3.307 1.167 1.219 2.78 1.802 3.069 1.899.097.289.681 1.902 1.899 3.069 1.314 1.314 2.882 1.729 3.307 1.436.507-.35 1.664-1.333 2.334-1.967.718-.68 1.507-1.541 2.108-2.227.512-.585 1.796-2.643 2.14-3.508 1.809-4.544 1.126-9.587 1.111-9.698l.002-.002h-.003v-.003l-.002.002c-.111-.015-5.154-.698-9.698 1.111-.865.344-2.923 1.628-3.508 2.14-.687.599-1.548 1.388-2.228 2.107z"></path><defs><path id="logo-f" d="M6.133 26.873c-.634.67-1.617 1.826-1.967 2.334-.294.425.121 1.993 1.436 3.307 1.167 1.219 2.78 1.802 3.069 1.899.097.289.681 1.902 1.899 3.069 1.314 1.314 2.882 1.729 3.307 1.436.507-.35 1.664-1.333 2.334-1.967.718-.68 1.507-1.541 2.108-2.227.512-.585 1.796-2.643 2.14-3.508 1.809-4.544 1.126-9.587 1.111-9.698l.002-.002h-.003v-.003l-.002.002c-.111-.015-5.154-.698-9.698 1.111-.865.344-2.923 1.628-3.508 2.14-.687.599-1.548 1.388-2.228 2.107z"></path></defs><clipPath id="logo-g"><use xlink:href="#f" overflow="visible"></use></clipPath><linearGradient id="logo-h" gradientUnits="userSpaceOnUse" x1="31.428" y1="-468.351" x2="31.428" y2="-489.252" gradientTransform="rotate(-134.999 125.523 -222.93)"><stop offset=".379" stop-color="#fff" stop-opacity="0"></stop><stop offset="1" stop-color="#fff"></stop></linearGradient><path opacity=".2" clip-path="url(#g)" fill="url(#logo-h)" d="M14.779 13.407l7.476 7.475-14.78 14.78L0 28.187z"></path><linearGradient id="logo-i" gradientUnits="userSpaceOnUse" x1="261.134" y1="-211.449" x2="261.134" y2="-230.521" gradientTransform="rotate(134.999 93.075 -144.597)"><stop offset="0" stop-color="#649047"></stop><stop offset="1" stop-color="#7ca732"></stop></linearGradient><path fill="url(#logo-i)" d="M26.873 36.95c.67.634 1.826 1.617 2.334 1.967.425.294 1.993-.121 3.307-1.436 1.219-1.167 1.802-2.78 1.899-3.069.289-.097 1.902-.681 3.069-1.899 1.314-1.314 1.729-2.882 1.436-3.307-.35-.507-1.333-1.664-1.967-2.334-.68-.718-1.541-1.507-2.227-2.108-.585-.512-2.643-1.796-3.508-2.14-4.544-1.809-9.587-1.126-9.698-1.111l-.002-.002v.003h-.003l.002.002c-.015.111-.698 5.154 1.111 9.698.344.865 1.628 2.923 2.14 3.508.599.687 1.388 1.548 2.107 2.228z"></path><g><defs><path id="logo-j" d="M26.873 36.95c.67.634 1.826 1.617 2.334 1.967.425.294 1.993-.121 3.307-1.436 1.219-1.167 1.802-2.78 1.899-3.069.289-.097 1.902-.681 3.069-1.899 1.314-1.314 1.729-2.882 1.436-3.307-.35-.507-1.333-1.664-1.967-2.334-.68-.718-1.541-1.507-2.227-2.108-.585-.512-2.643-1.796-3.508-2.14-4.544-1.809-9.587-1.126-9.698-1.111l-.002-.002v.003h-.003l.002.002c-.015.111-.698 5.154 1.111 9.698.344.865 1.628 2.923 2.14 3.508.599.687 1.388 1.548 2.107 2.228z"></path></defs><clipPath id="logo-k"><use xlink:href="#j" overflow="visible"></use></clipPath><linearGradient id="logo-l" gradientUnits="userSpaceOnUse" x1="266.381" y1="-210.52" x2="266.381" y2="-231.421" gradientTransform="rotate(134.999 93.075 -144.597)"><stop offset=".379" stop-color="#fff" stop-opacity="0"></stop><stop offset="1" stop-color="#fff"></stop></linearGradient><path opacity=".2" clip-path="url(#k)" fill="url(#logo-l)" d="M13.407 28.303l7.475-7.475 14.78 14.78-7.475 7.475z"></path></g><linearGradient id="logo-m" gradientUnits="userSpaceOnUse" x1="-74.983" y1="-234.327" x2="-74.983" y2="-253.398" gradientTransform="rotate(-45.001 282.193 -222.927)"><stop offset="0" stop-color="#649047"></stop><stop offset="1" stop-color="#7ca732"></stop></linearGradient><path fill="url(#logo-m)" d="M16.21 6.133c-.67-.634-1.826-1.617-2.334-1.967-.425-.294-1.993.121-3.307 1.436C9.35 6.769 8.767 8.382 8.67 8.671c-.288.097-1.902.68-3.068 1.899-1.314 1.314-1.729 2.882-1.436 3.307.35.507 1.333 1.664 1.967 2.334.68.718 1.541 1.507 2.227 2.108.585.512 2.643 1.796 3.508 2.14 4.544 1.809 9.587 1.126 9.698 1.111l.002.002v-.003h.003l-.002-.002c.015-.111.698-5.154-1.111-9.698-.344-.865-1.628-2.923-2.14-3.508-.6-.687-1.389-1.548-2.108-2.228z"></path><g><defs><path id="logo-n" d="M16.21 6.133c-.67-.634-1.826-1.617-2.334-1.967-.425-.294-1.993.121-3.307 1.436C9.35 6.769 8.767 8.382 8.67 8.671c-.288.097-1.902.68-3.068 1.899-1.314 1.314-1.729 2.882-1.436 3.307.35.507 1.333 1.664 1.967 2.334.68.718 1.541 1.507 2.227 2.108.585.512 2.643 1.796 3.508 2.14 4.544 1.809 9.587 1.126 9.698 1.111l.002.002v-.003h.003l-.002-.002c.015-.111.698-5.154-1.111-9.698-.344-.865-1.628-2.923-2.14-3.508-.6-.687-1.389-1.548-2.108-2.228z"></path></defs><clipPath id="logo-o"><use xlink:href="#n" overflow="visible"></use></clipPath><linearGradient id="logo-p" gradientUnits="userSpaceOnUse" x1="-69.736" y1="-233.397" x2="-69.736" y2="-254.299" gradientTransform="rotate(-45.001 282.193 -222.927)"><stop offset=".379" stop-color="#fff" stop-opacity="0"></stop><stop offset="1" stop-color="#fff"></stop></linearGradient><path opacity=".2" clip-path="url(#o)" fill="url(#logo-p)" d="M29.676 14.779L22.2 22.255 7.421 7.475 14.896 0z"></path></g></g></svg>
      
        <svg height="512" viewBox="-47 0 512 512" width="512" id="student"><path d="M333.133 198.344l6.148 162.976H78.926l6.152-162.976zm0 0" fill="#ff933b"></path><path d="M339.281 361.32l-6.148-162.976H92.797c5.691 59.16 55.68 105.578 116.308 105.578 34.247 0 65.098-14.813 86.489-38.363 6.148-6.77 17.43-2.579 17.773 6.562l3.367 89.2zm0 0" fill="#f27d27"></path><path d="M142.219 344.367l-82.164 22.824C24.563 377.051 0 409.363 0 446.2v55.551C0 507.41 4.59 512 10.25 512h397.71c5.661 0 10.25-4.59 10.25-10.25V446.2c0-36.837-24.562-69.15-60.054-79.009l-82.164-22.824a41.032 41.032 0 0 0-10.976-1.496H153.19c-3.707 0-7.398.504-10.972 1.496zm0 0" fill="#ddf5ff"></path><path d="M358.156 367.191l-57.851-16.07L269.582 512h138.379c5.66 0 10.25-4.59 10.25-10.25V446.2c0-36.837-24.563-69.15-60.055-79.009zm0 0" fill="#636363"></path><path d="M358.156 367.191l-6.633-1.843c17.817 15.226 28.762 37.777 28.762 62.351V512h27.676c5.66 0 10.25-4.59 10.25-10.25V446.2c0-36.837-24.563-69.15-60.055-79.009zm0 0" fill="#494949"></path><path d="M60.055 367.191l57.851-16.07L148.63 512H10.25C4.59 512 0 507.41 0 501.75V446.2c0-36.837 24.563-69.15 60.055-79.009zm0 0" fill="#636363"></path><path d="M246.008 342.871l-28.832 36.836c-4.102 5.246-12.04 5.246-16.145 0l-28.828-36.836v-84.05h73.805zm0 0" fill="#f9b3a7"></path><path d="M305.457 113.266h26.652v41h-26.652zm0 0" fill="#f27d27"></path><path d="M404.117 115.316c0-9.32-5.863-17.25-14.094-20.359V7.687a7.69 7.69 0 0 0-15.378 0v87.27c-8.23 3.11-14.094 11.04-14.094 20.36 0 9.316 5.863 17.246 14.094 20.359v20.64a7.69 7.69 0 0 0 15.378 0v-20.64c8.23-3.113 14.094-11.04 14.094-20.36zm0 0" fill="#ffd664"></path><path d="M394.652 97.36a21.664 21.664 0 0 1 3.825 12.32c0 12.027-9.75 21.78-21.782 21.78a21.681 21.681 0 0 1-12.316-3.823c3.926 5.71 10.5 9.46 17.957 9.46 12.027 0 21.781-9.75 21.781-21.78 0-7.458-3.75-14.032-9.465-17.958zm0 0" fill="#f9c646"></path><path d="M397.71 0H20.5c-4.246 0-7.688 3.441-7.688 7.688s3.442 7.687 7.688 7.687h65.602v97.89h246.007v-97.89h65.602a7.687 7.687 0 1 0 0-15.375zm0 0" fill="#636363"></path><path d="M312.633 15.375v64.578c0 3.633-9.18 12.813-20.5 12.813H86.102v20.5h246.007V15.375zm0 0" fill="#494949"></path><path d="M86.102 113.266h26.652v41H86.102zm0 0" fill="#ff933b"></path><path d="M209.105 113.266h-96.351v73.8c0 53.215 43.137 96.352 96.351 96.352 53.215 0 96.352-43.137 96.352-96.352v-73.8zm0 0" fill="#feccc1"></path><path d="M276.758 113.266v73.8c0 48.336-35.598 88.36-82.004 95.29a97.12 97.12 0 0 0 14.351 1.062c53.215 0 96.352-43.137 96.352-96.352v-73.8zm0 0" fill="#f9b3a7"></path><path d="M97.379 202.441h20.5V147.09h-20.5c-11.324 0-20.504 9.18-20.504 20.504v14.347c.004 11.325 9.18 20.5 20.504 20.5zm0 0" fill="#feccc1"></path><path d="M320.832 202.441h-20.5V147.09h20.5c11.324 0 20.504 9.18 20.504 20.504v14.347c-.004 11.325-9.18 20.5-20.504 20.5zm0 0" fill="#f9b3a7"></path><g fill="#494949"><path d="M332.621 512v-31.777a7.692 7.692 0 0 1 7.688-7.688 7.69 7.69 0 0 1 7.687 7.688V512zm0 0M70.215 512v-31.777a7.69 7.69 0 0 1 7.687-7.688 7.692 7.692 0 0 1 7.688 7.688V512zm0 0"></path></g></svg>
      
  </defs>
</svg>
