<?xml version="1.0" encoding="utf-8"?>
<!-- Generator: Adobe Illustrator 21.0.1, SVG Export Plug-In . SVG Version: 6.00 Build 0)  -->
<svg version="1.1" id="Слой_1" xmlns="http://www.w3.org/2000/svg" xmlns:xlink="http://www.w3.org/1999/xlink" x="0px" y="0px"
	 width="17.9px" height="18.2px" viewBox="0 0 17.9 18.2" enable-background="new 0 0 17.9 18.2" xml:space="preserve">
<path fill="#565A5A" d="M9,12.6c-2.8,0-5.1-2.3-5.1-5.1V5.1C3.9,2.3,6.2,0,9,0C11.8,0,14,2.3,14,5.1v2.5C14,10.3,11.8,12.6,9,12.6
	 M9,0.8c-2.3,0-4.3,1.9-4.3,4.3v2.5c0,2.3,1.9,4.3,4.3,4.3c2.3,0,4.3-1.9,4.3-4.3V5.1C13.2,2.7,11.3,0.8,9,0.8"/>
<path fill="#565A5A" d="M15.7,18.2H2.1C1,18.2,0,17.2,0,16v-1.9c0-0.7,0.4-1.6,2-2.1l2-0.6c0.2-0.1,0.4,0.1,0.5,0.3
	c0.1,0.2-0.1,0.4-0.3,0.5l-2,0.6c-1.5,0.4-1.5,1.1-1.5,1.4V16c0,0.7,0.6,1.3,1.3,1.3h13.6c0.7,0,1.3-0.6,1.3-1.3v-1.9
	c0-0.6-0.5-1.1-1.5-1.4l-1.9-0.5c-0.2-0.1-0.3-0.3-0.3-0.5c0.1-0.2,0.3-0.3,0.5-0.3l1.9,0.5c1.7,0.5,2,1.4,2,2.1V16
	C17.9,17.2,16.9,18.2,15.7,18.2"/>
<rect y="0" display="none" fill="none" width="17.9" height="18.2"/>
</svg>
