<svg height="512pt" viewBox="0 0 512 512" width="512pt" xmlns="http://www.w3.org/2000/svg"><path d="m512 255c0 19.328125-15.671875 35-35 35s-35-15.671875-35-35c0-10.632812 4.746094-20.152344 12.230469-26.570312-11.84375-88.820313-82.199219-159.386719-170.917969-171.558594-6.414062 8-16.261719 13.128906-27.3125 13.128906s-20.898438-5.128906-27.3125-13.128906c-88.71875 12.171875-159.078125 82.738281-170.917969 171.558594 7.484375 6.417968 12.230469 15.9375 12.230469 26.570312 0 19.328125-15.671875 35-35 35s-35-15.671875-35-35c0-13.128906 7.230469-24.558594 17.921875-30.550781 6.632813-52.53125 30.324219-101.105469 68.371094-139.15625 11.417969-11.414063 23.78125-21.535157 36.914062-30.292969h-59.492187c-6.324219 9.0625-16.824219 15-28.714844 15-19.328125 0-35-15.671875-35-35s15.671875-35 35-35c11.890625 0 22.390625 5.9375 28.714844 15h163.570312c6.324219-9.0625 16.824219-15 28.714844-15s22.390625 5.9375 28.714844 15h163.570312c6.324219-9.0625 16.824219-15 28.714844-15 19.328125 0 35 15.671875 35 35s-15.671875 35-35 35c-11.890625 0-22.390625-5.9375-28.714844-15h-59.492187c13.132812 8.757812 25.496093 18.878906 36.914062 30.292969 38.046875 38.050781 61.738281 86.625 68.371094 139.15625 10.691406 5.992187 17.921875 17.421875 17.921875 30.550781zm-154.3125 13.460938c13.121094 24.484374 12.257812 54.417968-2.246094 78.109374-5.765625 9.421876-18.078125 12.382813-27.496094 6.617188-9.421874-5.765625-12.382812-18.078125-6.617187-27.5 7.109375-11.613281 7.539063-26.28125 1.128906-38.289062l-48.449219-89.027344.007813 77.191406c5.5 10.855469 9.984375 21.667969 9.984375 28.070312 0 16.570313-13.433594 30-30 30s-30-13.429687-30-30c0-6.417968 4.503906-17.261718 10.015625-28.136718l-.007813-72.828125-46.449218 85.199219c-6.398438 11.957031-6.003906 26.566406 1.019531 38.164062l39.496094 62.964844h66.910156c11.042969 0 19.996094 8.953125 20 19.996094l.015625 55.328124c.027344 25.6875-20.859375 46.621094-46.5625 46.648438l-26.75.03125c-.019531 0-.039062 0-.054688 0-12.433593 0-24.125-4.835938-32.925781-13.617188-8.816406-8.796874-13.675781-20.496093-13.691406-32.949218l-.015625-52.882813-40.378906-64.378906c-.042969-.070313-.085938-.140625-.128906-.210937-14.453126-23.695313-15.277344-53.605469-2.152344-78.058594.023437-.039063.042968-.078125.0625-.117188l85.253906-156.363281c3.503906-6.429687 10.238281-10.425781 17.558594-10.425781h.007812c7.324219 0 14.058594 4.007812 17.558594 10.4375l84.847656 155.910156c.019532.039062.039063.078125.058594.117188zm-82.699219 160.539062h-39.980469l.007813 35.40625c.003906 2.371094 1.21875 3.9375 1.945313 4.660156.722656.722656 2.292968 1.933594 4.671874 1.933594h.007813l26.75-.027344c3.648437-.003906 6.613281-2.976562 6.609375-6.625zm0 0"/></svg>