<?xml version="1.0" encoding="iso-8859-1"?>
<!-- Generator: Adobe Illustrator 21.0.1, SVG Export Plug-In . SVG Version: 6.00 Build 0)  -->
<svg version="1.1" id="&#x421;&#x43B;&#x43E;&#x439;_1"
	 xmlns="http://www.w3.org/2000/svg" xmlns:xlink="http://www.w3.org/1999/xlink" x="0px" y="0px" width="170.277px"
	 height="43.083px" viewBox="0 0 170.277 43.083" enable-background="new 0 0 170.277 43.083" xml:space="preserve">
<g>
	<g>
		<path fill="#FFFFFF" d="M56.821,13.516c3.321,0,5.159,1.328,5.956,3.764c0.133,0.421,0.044,0.598-0.376,0.753l-0.908,0.31
			c-0.42,0.133-0.597,0.066-0.753-0.354c-0.553-1.66-1.705-2.48-3.919-2.48c-2.635,0-4.052,1.329-4.052,3.653v5.092
			c0,2.302,1.439,3.653,4.052,3.653c2.258,0,3.388-0.863,3.941-2.524c0.155-0.443,0.332-0.531,0.753-0.376l0.908,0.332
			c0.421,0.133,0.531,0.332,0.376,0.753c-0.797,2.435-2.613,3.808-5.978,3.808c-3.985,0-6.199-2.17-6.199-5.668v-5.048
			C50.622,15.685,52.814,13.516,56.821,13.516z"/>
		<path fill="#FFFFFF" d="M66.473,29.567h-0.908c-0.398,0-0.531-0.133-0.531-0.531V13.715c0-0.399,0.133-0.531,0.531-0.531h0.908
			c0.398,0,0.531,0.133,0.531,0.531v15.321C67.004,29.434,66.871,29.567,66.473,29.567z"/>
		<path fill="#FFFFFF" d="M74.442,17.811c3.188,0,4.982,1.616,4.982,4.251v3.609c0,2.613-1.793,4.229-4.982,4.229
			c-3.122,0-4.96-1.616-4.96-4.229v-3.609C69.483,19.427,71.32,17.811,74.442,17.811z M74.442,19.604
			c-1.86,0-2.989,0.908-2.989,2.435v3.631c0,1.527,1.129,2.435,2.989,2.435c1.882,0,3.011-0.908,3.011-2.435v-3.631
			C77.454,20.512,76.325,19.604,74.442,19.604z"/>
		<path fill="#FFFFFF" d="M91.069,18.741l-4.273,10.384c-0.155,0.376-0.332,0.487-0.731,0.487h-0.554
			c-0.398,0-0.576-0.111-0.73-0.487l-4.273-10.362c-0.199-0.487-0.088-0.62,0.443-0.62h0.664c0.62,0,0.775,0.111,0.93,0.531
			l2.591,6.399c0.332,0.908,0.532,1.949,0.62,2.125h0.089c0.066-0.177,0.266-1.196,0.598-2.103l2.568-6.421
			c0.155-0.421,0.31-0.531,0.93-0.531h0.708C91.135,18.143,91.268,18.254,91.069,18.741z"/>
		<path fill="#FFFFFF" d="M97.134,17.811c3.41,0,5.004,1.971,5.004,4.583v1.284c0,0.465-0.199,0.775-0.819,0.775H94.1v1.063
			c0,1.683,1.019,2.657,2.967,2.657c1.572,0,2.524-0.598,3.077-1.528c0.266-0.376,0.465-0.421,0.863-0.199l0.598,0.31
			c0.398,0.199,0.443,0.487,0.199,0.863c-0.775,1.351-2.214,2.28-4.76,2.28c-3.454,0-4.915-1.904-4.915-4.605v-2.745
			C92.129,19.56,93.857,17.811,97.134,17.811z M97.134,19.493c-1.993,0-3.033,1.063-3.033,2.79v0.642h6.067v-0.642
			C100.167,20.556,99.148,19.493,97.134,19.493z"/>
		<path fill="#FFFFFF" d="M109.929,17.811c0.399,0,0.531,0.133,0.531,0.531v0.753c0,0.399-0.132,0.531-0.531,0.531h-0.775
			c-1.085,0-1.904,0.177-2.546,0.377c-0.288,0.11-0.31,0.243-0.31,0.443v8.591c0,0.398-0.133,0.531-0.532,0.531h-0.93
			c-0.376,0-0.509-0.133-0.509-0.531v-9.299c0-0.686,0.155-0.952,0.841-1.24c0.819-0.31,2.104-0.642,4.052-0.686H109.929z"/>
		<path fill="#FFFFFF" d="M115.84,17.811c2.569,0,3.963,0.952,4.627,2.391c0.199,0.399,0.088,0.62-0.265,0.775l-0.753,0.31
			c-0.399,0.177-0.509,0.111-0.731-0.244c-0.421-0.863-1.129-1.439-2.834-1.439c-1.705,0-2.524,0.531-2.524,1.594
			c0,1.417,1.174,1.594,3.011,1.749c2.524,0.244,4.384,0.797,4.384,3.41c0,2.103-1.527,3.542-4.627,3.542
			c-2.524,0-4.163-0.908-4.849-2.723c-0.155-0.354-0.066-0.576,0.332-0.708l0.753-0.266c0.354-0.111,0.531-0.066,0.708,0.332
			c0.443,1.151,1.439,1.594,2.989,1.594c1.882,0,2.768-0.598,2.768-1.683c0-1.328-1.085-1.572-2.944-1.749
			c-2.214-0.221-4.495-0.598-4.495-3.454C111.389,19.183,112.895,17.811,115.84,17.811z"/>
		<path fill="#7CA732" d="M137.978,14.423v0.841c0,0.421-0.155,0.576-0.575,0.576h-4.185v13.152c0,0.421-0.132,0.576-0.575,0.576
			h-0.974c-0.443,0-0.576-0.155-0.576-0.576V15.84h-4.185c-0.443,0-0.576-0.155-0.576-0.576v-0.841c0-0.421,0.133-0.576,0.576-0.576
			h10.495C137.823,13.847,137.978,14.003,137.978,14.423z"/>
		<path fill="#7CA732" d="M142.051,17.811c3.41,0,5.004,1.971,5.004,4.583v1.284c0,0.465-0.199,0.775-0.819,0.775h-7.218v1.063
			c0,1.683,1.019,2.657,2.967,2.657c1.572,0,2.524-0.598,3.078-1.528c0.265-0.376,0.465-0.421,0.863-0.199l0.598,0.31
			c0.398,0.199,0.443,0.487,0.199,0.863c-0.775,1.351-2.214,2.28-4.76,2.28c-3.454,0-4.915-1.904-4.915-4.605v-2.745
			C137.047,19.56,138.774,17.811,142.051,17.811z M142.051,19.493c-1.993,0-3.033,1.063-3.033,2.79v0.642h6.067v-0.642
			C145.084,20.556,144.066,19.493,142.051,19.493z"/>
		<path fill="#7CA732" d="M153.851,17.811c2.679,0,4.118,1.218,4.672,2.967c0.155,0.421,0.022,0.62-0.354,0.753l-0.775,0.244
			c-0.398,0.177-0.598,0.044-0.753-0.354c-0.398-1.218-1.24-1.86-2.878-1.86c-1.926,0-2.878,0.974-2.878,2.613v3.343
			c0,1.638,0.974,2.635,2.878,2.635c1.594,0,2.502-0.686,2.9-1.926c0.177-0.421,0.332-0.487,0.753-0.354l0.775,0.221
			c0.398,0.155,0.531,0.332,0.376,0.753c-0.708,1.971-2.214,3.055-4.849,3.055c-3.277,0-4.827-1.705-4.827-4.472v-3.166
			C148.891,19.515,150.485,17.811,153.851,17.811z"/>
		<path fill="#7CA732" d="M162.683,13.715v4.583c0.465-0.221,1.66-0.487,3.1-0.487c3.099,0,4.494,1.616,4.494,4.384v6.842
			c0,0.398-0.133,0.531-0.531,0.531h-0.908c-0.399,0-0.531-0.133-0.531-0.531v-6.775c0-1.705-0.93-2.635-2.79-2.635
			c-1.24,0-2.347,0.266-2.834,0.509v8.901c0,0.398-0.133,0.531-0.509,0.531h-0.93c-0.399,0-0.531-0.133-0.531-0.531V13.715
			c0-0.399,0.132-0.531,0.531-0.531h0.93C162.55,13.183,162.683,13.316,162.683,13.715z"/>
	</g>
	<g>
		
			<linearGradient id="SVGID_1_" gradientUnits="userSpaceOnUse" x1="159.9698" y1="23.5041" x2="159.9698" y2="4.4326" gradientTransform="matrix(0.7071 0.7071 -0.7071 0.7071 -74.9834 -108.1652)">
			<stop  offset="0" style="stop-color:#649047"/>
			<stop  offset="1" style="stop-color:#7CA732"/>
		</linearGradient>
		<path fill="url(#SVGID_1_)" d="M36.95,16.21c0.634-0.67,1.617-1.826,1.967-2.334c0.294-0.425-0.121-1.993-1.436-3.307
			c-1.167-1.219-2.78-1.802-3.069-1.899c-0.097-0.289-0.681-1.902-1.899-3.069c-1.314-1.314-2.882-1.729-3.307-1.436
			c-0.507,0.35-1.664,1.333-2.334,1.967c-0.718,0.68-1.507,1.541-2.108,2.227c-0.512,0.585-1.796,2.643-2.14,3.508
			c-1.809,4.544-1.126,9.587-1.111,9.698l-0.002,0.002c0,0,0.002,0,0.003,0c0,0,0,0.003,0,0.003l0.002-0.002
			c0.111,0.015,5.154,0.698,9.698-1.111c0.865-0.344,2.923-1.628,3.508-2.14C35.409,17.718,36.27,16.929,36.95,16.21z"/>
		<g>
			<defs>
				<path id="SVGID_2_" d="M36.95,16.21c0.634-0.67,1.617-1.826,1.967-2.334c0.294-0.425-0.121-1.993-1.436-3.307
					c-1.167-1.219-2.78-1.802-3.069-1.899c-0.097-0.289-0.681-1.902-1.899-3.069c-1.314-1.314-2.882-1.729-3.307-1.436
					c-0.507,0.35-1.664,1.333-2.334,1.967c-0.718,0.68-1.507,1.541-2.108,2.227c-0.512,0.585-1.796,2.643-2.14,3.508
					c-1.809,4.544-1.126,9.587-1.111,9.698l-0.002,0.002c0,0,0.002,0,0.003,0c0,0,0,0.003,0,0.003l0.002-0.002
					c0.111,0.015,5.154,0.698,9.698-1.111c0.865-0.344,2.923-1.628,3.508-2.14C35.409,17.718,36.27,16.929,36.95,16.21z"/>
			</defs>
			<clipPath id="SVGID_3_">
				<use xlink:href="#SVGID_2_"  overflow="visible"/>
			</clipPath>
			
				<linearGradient id="SVGID_4_" gradientUnits="userSpaceOnUse" x1="165.2173" y1="24.4334" x2="165.2173" y2="3.5321" gradientTransform="matrix(0.7071 0.7071 -0.7071 0.7071 -74.9834 -108.1652)">
				<stop  offset="0.3793" style="stop-color:#FFFFFF;stop-opacity:0"/>
				<stop  offset="1" style="stop-color:#FFFFFF"/>
			</linearGradient>
			<polygon opacity="0.2" clip-path="url(#SVGID_3_)" fill="url(#SVGID_4_)" points="28.303,29.676 20.828,22.2 35.608,7.421 
				43.083,14.896 			"/>
		</g>
		
			<linearGradient id="SVGID_5_" gradientUnits="userSpaceOnUse" x1="26.1806" y1="-469.2799" x2="26.1806" y2="-488.3514" gradientTransform="matrix(-0.7071 -0.7071 0.7071 -0.7071 371.914 -291.8061)">
			<stop  offset="0" style="stop-color:#649047"/>
			<stop  offset="1" style="stop-color:#7CA732"/>
		</linearGradient>
		<path fill="url(#SVGID_5_)" d="M6.133,26.873c-0.634,0.67-1.617,1.826-1.967,2.334c-0.294,0.425,0.121,1.993,1.436,3.307
			c1.167,1.219,2.78,1.802,3.069,1.899c0.097,0.289,0.681,1.902,1.899,3.069c1.314,1.314,2.882,1.729,3.307,1.436
			c0.507-0.35,1.664-1.333,2.334-1.967c0.718-0.68,1.507-1.541,2.108-2.227c0.512-0.585,1.796-2.643,2.14-3.508
			c1.809-4.544,1.126-9.587,1.111-9.698l0.002-0.002c0,0-0.002,0-0.003,0c0,0,0-0.003,0-0.003l-0.002,0.002
			c-0.111-0.015-5.154-0.698-9.698,1.111c-0.865,0.344-2.923,1.628-3.508,2.14C7.674,25.365,6.813,26.154,6.133,26.873z"/>
		<g>
			<defs>
				<path id="SVGID_6_" d="M6.133,26.873c-0.634,0.67-1.617,1.826-1.967,2.334c-0.294,0.425,0.121,1.993,1.436,3.307
					c1.167,1.219,2.78,1.802,3.069,1.899c0.097,0.289,0.681,1.902,1.899,3.069c1.314,1.314,2.882,1.729,3.307,1.436
					c0.507-0.35,1.664-1.333,2.334-1.967c0.718-0.68,1.507-1.541,2.108-2.227c0.512-0.585,1.796-2.643,2.14-3.508
					c1.809-4.544,1.126-9.587,1.111-9.698l0.002-0.002c0,0-0.002,0-0.003,0c0,0,0-0.003,0-0.003l-0.002,0.002
					c-0.111-0.015-5.154-0.698-9.698,1.111c-0.865,0.344-2.923,1.628-3.508,2.14C7.674,25.365,6.813,26.154,6.133,26.873z"/>
			</defs>
			<clipPath id="SVGID_7_">
				<use xlink:href="#SVGID_6_"  overflow="visible"/>
			</clipPath>
			
				<linearGradient id="SVGID_8_" gradientUnits="userSpaceOnUse" x1="31.4281" y1="-468.3506" x2="31.4281" y2="-489.2519" gradientTransform="matrix(-0.7071 -0.7071 0.7071 -0.7071 371.914 -291.8061)">
				<stop  offset="0.3793" style="stop-color:#FFFFFF;stop-opacity:0"/>
				<stop  offset="1" style="stop-color:#FFFFFF"/>
			</linearGradient>
			<polygon opacity="0.2" clip-path="url(#SVGID_7_)" fill="url(#SVGID_8_)" points="14.779,13.407 22.255,20.882 7.475,35.662 
				0,28.187 			"/>
		</g>
		
			<linearGradient id="SVGID_9_" gradientUnits="userSpaceOnUse" x1="261.1339" y1="-211.4491" x2="261.1339" y2="-230.5207" gradientTransform="matrix(-0.7071 0.7071 -0.7071 -0.7071 56.6448 -312.6543)">
			<stop  offset="0" style="stop-color:#649047"/>
			<stop  offset="1" style="stop-color:#7CA732"/>
		</linearGradient>
		<path fill="url(#SVGID_9_)" d="M26.873,36.95c0.67,0.634,1.826,1.617,2.334,1.967c0.425,0.294,1.993-0.121,3.307-1.436
			c1.219-1.167,1.802-2.78,1.899-3.069c0.289-0.097,1.902-0.681,3.069-1.899c1.314-1.314,1.729-2.882,1.436-3.307
			c-0.35-0.507-1.333-1.664-1.967-2.334c-0.68-0.718-1.541-1.507-2.227-2.108c-0.585-0.512-2.643-1.796-3.508-2.14
			c-4.544-1.809-9.587-1.126-9.698-1.111l-0.002-0.002c0,0,0,0.002,0,0.003c0,0-0.003,0-0.003,0l0.002,0.002
			c-0.015,0.111-0.698,5.154,1.111,9.698c0.344,0.865,1.628,2.923,2.14,3.508C25.365,35.409,26.154,36.27,26.873,36.95z"/>
		<g>
			<defs>
				<path id="SVGID_10_" d="M26.873,36.95c0.67,0.634,1.826,1.617,2.334,1.967c0.425,0.294,1.993-0.121,3.307-1.436
					c1.219-1.167,1.802-2.78,1.899-3.069c0.289-0.097,1.902-0.681,3.069-1.899c1.314-1.314,1.729-2.882,1.436-3.307
					c-0.35-0.507-1.333-1.664-1.967-2.334c-0.68-0.718-1.541-1.507-2.227-2.108c-0.585-0.512-2.643-1.796-3.508-2.14
					c-4.544-1.809-9.587-1.126-9.698-1.111l-0.002-0.002c0,0,0,0.002,0,0.003c0,0-0.003,0-0.003,0l0.002,0.002
					c-0.015,0.111-0.698,5.154,1.111,9.698c0.344,0.865,1.628,2.923,2.14,3.508C25.365,35.409,26.154,36.27,26.873,36.95z"/>
			</defs>
			<clipPath id="SVGID_11_">
				<use xlink:href="#SVGID_10_"  overflow="visible"/>
			</clipPath>
			
				<linearGradient id="SVGID_12_" gradientUnits="userSpaceOnUse" x1="266.3814" y1="-210.5199" x2="266.3814" y2="-231.4211" gradientTransform="matrix(-0.7071 0.7071 -0.7071 -0.7071 56.6448 -312.6543)">
				<stop  offset="0.3793" style="stop-color:#FFFFFF;stop-opacity:0"/>
				<stop  offset="1" style="stop-color:#FFFFFF"/>
			</linearGradient>
			<polygon opacity="0.2" clip-path="url(#SVGID_11_)" fill="url(#SVGID_12_)" points="13.407,28.303 20.882,20.828 35.662,35.608 
				28.187,43.083 			"/>
		</g>
		
			<linearGradient id="SVGID_13_" gradientUnits="userSpaceOnUse" x1="-74.9834" y1="-234.3266" x2="-74.9834" y2="-253.3982" gradientTransform="matrix(0.7071 -0.7071 0.7071 0.7071 240.2857 134.2431)">
			<stop  offset="0" style="stop-color:#649047"/>
			<stop  offset="1" style="stop-color:#7CA732"/>
		</linearGradient>
		<path fill="url(#SVGID_13_)" d="M16.21,6.133c-0.67-0.634-1.826-1.617-2.334-1.967c-0.425-0.294-1.993,0.121-3.307,1.436
			c-1.219,1.167-1.802,2.78-1.899,3.069C8.382,8.768,6.768,9.351,5.602,10.57c-1.314,1.314-1.729,2.882-1.436,3.307
			c0.35,0.507,1.333,1.664,1.967,2.334c0.68,0.718,1.541,1.507,2.227,2.108c0.585,0.512,2.643,1.796,3.508,2.14
			c4.544,1.809,9.587,1.126,9.698,1.111l0.002,0.002c0,0,0-0.002,0-0.003c0,0,0.003,0,0.003,0l-0.002-0.002
			c0.015-0.111,0.698-5.154-1.111-9.698c-0.344-0.865-1.628-2.923-2.14-3.508C17.718,7.674,16.929,6.813,16.21,6.133z"/>
		<g>
			<defs>
				<path id="SVGID_14_" d="M16.21,6.133c-0.67-0.634-1.826-1.617-2.334-1.967c-0.425-0.294-1.993,0.121-3.307,1.436
					c-1.219,1.167-1.802,2.78-1.899,3.069C8.382,8.768,6.768,9.351,5.602,10.57c-1.314,1.314-1.729,2.882-1.436,3.307
					c0.35,0.507,1.333,1.664,1.967,2.334c0.68,0.718,1.541,1.507,2.227,2.108c0.585,0.512,2.643,1.796,3.508,2.14
					c4.544,1.809,9.587,1.126,9.698,1.111l0.002,0.002c0,0,0-0.002,0-0.003c0,0,0.003,0,0.003,0l-0.002-0.002
					c0.015-0.111,0.698-5.154-1.111-9.698c-0.344-0.865-1.628-2.923-2.14-3.508C17.718,7.674,16.929,6.813,16.21,6.133z"/>
			</defs>
			<clipPath id="SVGID_15_">
				<use xlink:href="#SVGID_14_"  overflow="visible"/>
			</clipPath>
			
				<linearGradient id="SVGID_16_" gradientUnits="userSpaceOnUse" x1="-69.736" y1="-233.3974" x2="-69.736" y2="-254.2986" gradientTransform="matrix(0.7071 -0.7071 0.7071 0.7071 240.2857 134.2431)">
				<stop  offset="0.3793" style="stop-color:#FFFFFF;stop-opacity:0"/>
				<stop  offset="1" style="stop-color:#FFFFFF"/>
			</linearGradient>
			<polygon opacity="0.2" clip-path="url(#SVGID_15_)" fill="url(#SVGID_16_)" points="29.676,14.779 22.2,22.255 7.421,7.475 
				14.896,0 			"/>
		</g>
	</g>
</g>
</svg>
