<svg height="512pt" viewBox="-47 0 512 512" width="512pt" xmlns="http://www.w3.org/2000/svg"><path d="m333.132812 198.34375 6.148438 162.976562h-260.355469l6.152344-162.976562zm0 0" fill="#ff933b"/><path d="m339.28125 361.320312-6.148438-162.976562h-240.335937c5.691406 59.160156 55.679687 105.578125 116.308594 105.578125 34.246093 0 65.097656-14.8125 86.488281-38.363281 6.148438-6.769532 17.429688-2.578125 17.773438 6.5625l3.367187 89.199218zm0 0" fill="#f27d27"/><path d="m142.21875 344.367188-82.164062 22.824218c-35.492188 9.859375-60.054688 42.171875-60.054688 79.007813v55.550781c0 5.660156 4.589844 10.25 10.25 10.25h397.710938c5.660156 0 10.25-4.589844 10.25-10.25v-55.550781c0-36.835938-24.5625-69.148438-60.054688-79.007813l-82.164062-22.824218c-3.574219-.992188-7.265626-1.496094-10.976563-1.496094h-111.824219c-3.707031 0-7.398437.503906-10.972656 1.496094zm0 0" fill="#ddf5ff"/><path d="m358.15625 367.191406-57.851562-16.070312-30.722657 160.878906h138.378907c5.660156 0 10.25-4.589844 10.25-10.25v-55.550781c0-36.835938-24.5625-69.148438-60.054688-79.007813zm0 0" fill="#636363"/><path d="m358.15625 367.191406-6.632812-1.84375c17.816406 15.226563 28.761718 37.777344 28.761718 62.351563v84.300781h27.675782c5.660156 0 10.25-4.589844 10.25-10.25v-55.550781c0-36.835938-24.5625-69.148438-60.054688-79.007813zm0 0" fill="#494949"/><path d="m60.054688 367.191406 57.851562-16.070312 30.722656 160.878906h-138.378906c-5.660156 0-10.25-4.589844-10.25-10.25v-55.550781c0-36.835938 24.5625-69.148438 60.054688-79.007813zm0 0" fill="#636363"/><path d="m246.007812 342.871094-28.832031 36.835937c-4.101562 5.246094-12.039062 5.246094-16.144531 0l-28.828125-36.835937v-84.050782h73.804687zm0 0" fill="#f9b3a7"/><path d="m305.457031 113.265625h26.652344v41h-26.652344zm0 0" fill="#f27d27"/><path d="m404.117188 115.316406c0-9.320312-5.863282-17.25-14.09375-20.359375v-87.269531c0-4.246094-3.445313-7.6875-7.6875-7.6875-4.246094 0-7.691407 3.441406-7.691407 7.6875v87.269531c-8.230469 3.109375-14.09375 11.039063-14.09375 20.359375 0 9.316406 5.863281 17.246094 14.09375 20.359375v20.640625c0 4.246094 3.445313 7.6875 7.691407 7.6875 4.242187 0 7.6875-3.441406 7.6875-7.6875v-20.640625c8.230468-3.113281 14.09375-11.039062 14.09375-20.359375zm0 0" fill="#ffd664"/><path d="m394.652344 97.359375c2.410156 3.503906 3.824218 7.746094 3.824218 12.320313 0 12.027343-9.75 21.78125-21.78125 21.78125-4.574218 0-8.8125-1.417969-12.316406-3.824219 3.925782 5.710937 10.5 9.460937 17.957032 9.460937 12.027343 0 21.78125-9.75 21.78125-21.78125 0-7.457031-3.75-14.03125-9.464844-17.957031zm0 0" fill="#f9c646"/><path d="m397.710938 0h-377.210938c-4.246094 0-7.6875 3.441406-7.6875 7.6875s3.441406 7.6875 7.6875 7.6875h65.601562v97.890625h246.007813v-97.890625h65.601563c4.246093 0 7.6875-3.441406 7.6875-7.6875s-3.445313-7.6875-7.6875-7.6875zm0 0" fill="#636363"/><path d="m312.632812 15.375v64.578125c0 3.632813-9.179687 12.8125-20.5 12.8125h-206.03125v20.5h246.007813v-97.890625zm0 0" fill="#494949"/><path d="m86.101562 113.265625h26.652344v41h-26.652344zm0 0" fill="#ff933b"/><path d="m209.105469 113.265625h-96.351563v73.800781c0 53.214844 43.136719 96.351563 96.351563 96.351563 53.214843 0 96.351562-43.136719 96.351562-96.351563v-73.800781zm0 0" fill="#feccc1"/><path d="m276.757812 113.265625v73.800781c0 48.335938-35.597656 88.359375-82.003906 95.289063 4.683594.699219 9.472656 1.0625 14.351563 1.0625 53.214843 0 96.351562-43.136719 96.351562-96.351563v-73.800781zm0 0" fill="#f9b3a7"/><path d="m97.378906 202.441406h20.5v-55.351562h-20.5c-11.324218 0-20.503906 9.179687-20.503906 20.503906v14.347656c.003906 11.324219 9.179688 20.5 20.503906 20.5zm0 0" fill="#feccc1"/><path d="m320.832031 202.441406h-20.5v-55.351562h20.5c11.324219 0 20.503907 9.179687 20.503907 20.503906v14.347656c-.003907 11.324219-9.179688 20.5-20.503907 20.5zm0 0" fill="#f9b3a7"/><g fill="#494949"><path d="m332.621094 512v-31.777344c0-4.242187 3.445312-7.6875 7.6875-7.6875 4.246094 0 7.6875 3.445313 7.6875 7.6875v31.777344zm0 0"/><path d="m70.214844 512v-31.777344c0-4.242187 3.441406-7.6875 7.6875-7.6875 4.242187 0 7.6875 3.445313 7.6875 7.6875v31.777344zm0 0"/></g></svg>