<svg xmlns="http://www.w3.org/2000/svg" xmlns:xlink="http://www.w3.org/1999/xlink" width="424.1" height="85" viewBox="0 0 424.1 85"><svg viewBox="-10 -10 424.1 84.2" width="424.1" height="84.2" id="logo" y="0"><defs><path id="a" d="M0 0h404.1v64.2H0z"></path></defs><clipPath id="b"><use xlink:href="#a" overflow="visible"></use></clipPath><path d="M403.6 27.6c.1.2.2.6.2 1v1c0 .2.1.3.2.4v.2h-1.5c0-.1-.1-.3-.1-.3 0-.2-.1-.4-.1-.6v-.6c0-.4-.1-.7-.2-.8-.1-.1-.4-.2-.8-.2H400v2.5h-1.3v-6.4h3.1c.4 0 .8.1 1 .2.2.1.4.3.6.4.1.2.2.3.3.5.1.2.1.4.1.7 0 .3-.1.6-.2.9-.2.3-.4.5-.8.6.5.1.7.3.8.5m-1.3-2.6c-.1-.1-.3-.1-.6-.1h-1.5v1.7h1.4c.3 0 .5 0 .6-.1.3-.1.4-.4.4-.7.1-.4-.1-.7-.3-.8m-6.6 2.2c0 3 2.5 5.5 5.5 5.5v2c-4.1 0-7.5-3.4-7.5-7.5s3.4-7.5 7.5-7.5v2c-3 0-5.5 2.5-5.5 5.5m-10.5 23.1c0 8.8-7.7 13.7-17.4 13.7-6.1 0-12.2-3-17-7.8l8.3-8.3c2.4 2.9 5.8 5.2 8.7 5.4 2.8.3 5.2-.9 5.7-2.2 1-3.3-4.9-3.4-6.7-4-6.8-2.1-14.7-4.9-14.7-13.3 0-10.1 10.5-13.5 15.7-13.5 6 0 12.1 2.8 17 7.7l-8.2 8.2c-2.2-2.9-6.1-5.2-8.8-5.2-1.4 0-4.1.5-4.1 3.3 0 5 21.5 2.6 21.5 16m-50 10.1c-1.5 2-5.9 3.5-8.8 3.5-12.5 0-21.6-9.3-21.6-21.8s8.2-21.9 20.7-21.9c2.8 0 8.2 1.5 9.6 3.5V.9H347v62.4h-11.8v-2.9zm-7.9-30.6c-5.3 0-9.6 5.5-9.6 12.3 0 6.7 4.3 12.2 9.6 12.2 5.8 0 9.6-6.5 9.6-12.2 0-5.7-3.7-12.3-9.6-12.3m-39.6 30.4c-2 2.1-5.5 3.6-9.5 3.6-11.6 0-16.1-5.2-16.1-13.1 0-8.9 7.2-15 18.9-15h6.6c0-3.2-2.4-5.2-6-5.2-3.7 0-5.5.7-7.4 2.8l-9.5-5.4c4.7-5.3 11.1-7.8 17.7-7.8 12.7 0 17.9 7 17.9 13.5v29.6h-12.7v-3zm0-14.7h-7.5c-3.4 0-5.8 2.3-5.3 5.6.3 2.3 2.4 3.3 5.3 3.3 5.6 0 7.5-3.2 7.5-5.1v-3.8zm-29.4-.5H228c0 5 5.1 8.5 9.3 8.5 4.1 0 7.9-1.6 9.9-5.2l8.5 7.8c-3.4 4.6-8.7 7.9-18.4 7.9-13.9 0-22.4-9.3-22.4-21.8s8.2-21.9 21.7-21.9c13.4 0 21.7 9.2 21.7 21.9V45zm-21.8-14.3c-4.6 0-7.5 2.5-8.2 6.2H245c-.7-4.1-3.6-6.2-8.5-6.2m-60.4 32.8h-12.7v-3c-2 2.1-5.5 3.6-9.5 3.6-11.6 0-16.1-5.2-16.1-13.1 0-8.9 7.2-15 18.9-15h6.6c0-3.2-2.4-5.2-6-5.2-3.7 0-5.5.7-7.4 2.8l-9.5-5.4c4.7-5.3 11.1-7.8 17.7-7.8 12.7 0 17.9 7 17.9 13.5v29.6zm-12.7-17.8h-7.5c-3.4 0-5.8 2.3-5.3 5.6.3 2.3 2.4 3.3 5.3 3.3 5.6 0 7.5-3.2 7.5-5.1v-3.8zm-26.1-14.5c-3.2-1.4-3.8-1.1-5.2-1.1-5.2 0-8.2 2.8-8.2 9.5v23.9h-12.7V21h12.7v3.8c1.6-2.9 6.1-4.4 8.9-4.4 2.7 0 4.2.1 6.2 1.2l-1.7 9.6zM101 30c-5.2 0-8.2 2.8-8.2 9.5v23.9H80.2V21h12.7v3.8c1.6-2.9 6.1-4.4 8.9-4.4 2.7 0 4.2.1 6.2 1.2l-1.7 9.5c-3.2-1.3-3.8-1.1-5.3-1.1M53.7 53.7c4.1 0 7.9-1.6 9.9-5.2l8.5 7.8c-3.4 4.6-8.7 7.9-18.4 7.9-13.9 0-22.4-9.3-22.4-21.8s8.3-22 21.7-22 21.7 9.2 21.7 21.9v2.8H44.5c0 5.1 5 8.6 9.2 8.6m7.7-16.6c-.7-4-3.6-6.2-8.4-6.2-4.6 0-7.5 2.5-8.2 6.2h16.6zm-44 8.3c0 3.1-.1 8.2 4.6 8.2 2.5 0 5.5-.5 5.5-.5V62c-2 1.1-4.4 2.1-7 2.1-10.9 0-15.8-4.6-15.8-18.7V31.5H0V21h4.7V8.8h12.7V21h11.1v10.5H17.4v13.9zM197 0h12.4v63.3H197V0z" clip-path="url(#b)" fill-rule="evenodd" clip-rule="evenodd" fill="#fff"></path></svg></svg>