<?xml version="1.0" encoding="utf-8"?>
<!-- Generator: Adobe Illustrator 21.0.1, SVG Export Plug-In . SVG Version: 6.00 Build 0)  -->
<svg version="1.1" id="Слой_1" xmlns="http://www.w3.org/2000/svg" xmlns:xlink="http://www.w3.org/1999/xlink" x="0px" y="0px"
	 width="354px" height="87.1px" viewBox="0 0 354 87.1" enable-background="new 0 0 354 87.1" xml:space="preserve">
<g>
	<path fill="#58595B" d="M104.1,22.2c0-1.8,0.4-3,1.3-3.8c0.9-0.8,2-1.3,3.2-1.6c0.8-0.2,2.4-0.3,4.6-0.5c2.3-0.2,5.5-0.3,9.8-0.3
		c8.6,0,15.1,1.6,19.4,4.9c4.3,3.3,6.4,7.8,6.4,13.4c0,4-0.9,7.2-2.8,9.8c-1.9,2.6-4.5,4.6-7.8,6c1.2,1.6,2.3,3.4,3.5,5.3
		c1.2,1.9,2.3,3.9,3.5,6c1.2,2.1,2.3,4.1,3.3,6.1c1.1,2,2.1,4,3,5.8h-11.4c-0.4-0.9-1.2-2.3-2.1-4.2c-1-1.9-2.1-3.9-3.2-6
		c-1.2-2.1-2.3-4.1-3.5-6.1c-1.2-1.9-2.1-3.4-2.9-4.5c-0.9,0.1-1.9,0.2-2.9,0.2c-1,0.1-2,0.1-2.8,0.1c-1.9,0-3.7-0.1-5.4-0.2
		c-1.7-0.1-2.9-0.3-3.6-0.4v21.1h-9.6V22.2z M113.6,43.9c0.7,0.1,1.8,0.2,3.2,0.4c1.4,0.2,3.5,0.2,6.2,0.2c3,0,5.5-0.2,7.5-0.7
		c2-0.5,3.6-1.2,4.9-2.1c1.2-0.9,2.1-1.9,2.6-3.2c0.5-1.2,0.8-2.6,0.8-4.1c0-1.4-0.2-2.7-0.7-3.9c-0.5-1.2-1.3-2.3-2.6-3.2
		c-1.2-0.9-2.8-1.7-4.9-2.2c-2.1-0.5-4.7-0.8-7.8-0.8c-2.7,0-4.8,0.1-6.3,0.2c-1.5,0.1-2.4,0.2-2.8,0.3V43.9z"/>
	<path fill="#58595B" d="M194.4,70.3c-0.4,0.3-1.1,0.7-2.1,1.2c-0.9,0.5-2.1,1-3.5,1.4c-1.4,0.4-3,0.8-4.9,1.2
		c-1.8,0.3-3.9,0.5-6.1,0.5c-3.1,0-5.9-0.5-8.6-1.4c-2.7-0.9-5-2.3-7-4.2c-2-1.8-3.6-4.1-4.7-6.8c-1.2-2.7-1.7-5.7-1.7-9.2
		c0-3.3,0.6-6.3,1.7-9c1.1-2.7,2.7-5.1,4.7-7c2-1.9,4.4-3.5,7.1-4.5c2.7-1.1,5.7-1.6,8.9-1.6c2.9,0,5.4,0.4,7.6,1.1
		c2.2,0.7,4.1,1.7,5.6,3c1.5,1.2,2.7,2.7,3.4,4.3c0.8,1.6,1.2,3.4,1.2,5.3c0,1.9-0.4,3.7-1.1,5.2c-0.7,1.6-2,2.9-3.8,4
		c-1.8,1.1-4.3,2-7.3,2.6c-3.1,0.6-7,0.9-11.7,0.9c-1.1,0-2.1,0-3.1,0c-1,0-2-0.1-3.1-0.1c0.4,2.8,1.8,5.1,4.1,6.8
		c2.3,1.7,5.5,2.6,9.8,2.6c1.4,0,2.7-0.1,4-0.3c1.2-0.2,2.3-0.5,3.3-0.8c1-0.3,1.8-0.7,2.5-1c0.7-0.3,1.2-0.6,1.5-0.7L194.4,70.3z
		 M165.5,50.8c1.3,0.1,2.5,0.1,3.6,0.1c1.1,0,2.3,0,3.5,0c3,0,5.5-0.2,7.3-0.6c1.9-0.4,3.3-0.9,4.4-1.5c1-0.6,1.7-1.3,2.1-2.1
		c0.3-0.8,0.5-1.6,0.5-2.4c0-2.1-0.8-3.7-2.5-4.7c-1.7-1-3.7-1.6-6.2-1.6c-2,0-3.8,0.4-5.4,1.1c-1.5,0.7-2.8,1.7-3.9,2.8
		c-1,1.2-1.9,2.5-2.4,4.1C165.8,47.6,165.5,49.2,165.5,50.8z"/>
	<path fill="#58595B" d="M204.2,29.4c0-3,0.4-5.5,1.2-7.7c0.8-2.1,2-3.9,3.5-5.2c1.5-1.3,3.3-2.3,5.4-3c2.1-0.6,4.3-0.9,6.8-0.9
		c4.5,0,7.7,0.5,9.6,1.6c1.9,1.1,2.8,2.4,2.8,4.1c0,0.9-0.3,1.8-0.8,2.5c-0.5,0.7-1.1,1.3-1.7,1.6c-0.9-0.7-2.1-1.3-3.6-1.7
		c-1.5-0.4-3.1-0.7-4.8-0.7c-3.2,0-5.6,0.8-6.9,2.5c-1.4,1.6-2.1,4-2.1,7V32H226c1.8,0,3.1,0.4,3.8,1.1c0.7,0.7,1.1,1.8,1.1,3.3
		c0,0.9-0.1,1.8-0.4,2.6c-0.3,0.8-0.5,1.4-0.7,1.7h-16.2v32.7h-9.4V29.4z"/>
	<path fill="#0894FF" d="M270.5,70.4c-0.7,0.4-1.5,0.9-2.4,1.4c-1,0.5-2.1,0.9-3.3,1.3c-1.2,0.4-2.6,0.8-4.2,1
		c-1.6,0.3-3.3,0.4-5.3,0.4c-3.1,0-6-0.5-8.7-1.4c-2.7-0.9-5.1-2.3-7.1-4.2c-2-1.8-3.6-4.1-4.8-6.8c-1.2-2.7-1.8-5.8-1.8-9.3
		c0-3.5,0.6-6.6,1.7-9.4c1.2-2.7,2.7-5.1,4.8-6.9c2-1.9,4.4-3.3,7.2-4.2c2.8-1,5.8-1.4,8.9-1.4c2.7,0,5,0.2,6.9,0.7
		c1.9,0.4,3.4,1,4.6,1.6c1.2,0.7,2,1.4,2.6,2.2c0.5,0.8,0.8,1.6,0.8,2.5c0,1.1-0.4,2.1-1.1,3c-0.7,0.9-1.4,1.6-2.1,2.1
		c-1-0.9-2.4-1.8-4.3-2.7c-1.9-0.9-4.2-1.3-6.9-1.3c-1.9,0-3.6,0.3-5.2,0.8c-1.6,0.5-3,1.4-4.2,2.5c-1.2,1.1-2.1,2.5-2.8,4.2
		c-0.7,1.7-1,3.7-1,6c0,2.4,0.4,4.5,1.1,6.2c0.7,1.7,1.7,3.1,3,4.2c1.3,1.1,2.7,1.9,4.4,2.4c1.6,0.5,3.4,0.8,5.4,0.8
		c2.7,0,5-0.4,6.6-1.1c1.7-0.7,2.8-1.3,3.4-1.7L270.5,70.4z M314.1,73.2c-0.6,0.1-1.4,0.2-2.6,0.4c-1.2,0.1-2.6,0.3-4.2,0.4
		c-1.6,0.1-3.4,0.3-5.4,0.4c-2,0.1-4,0.2-6.2,0.2c-4.3,0-7.8-0.4-10.5-1.1c-2.7-0.7-4.9-1.7-6.4-3c-1.6-1.2-2.6-2.7-3.2-4.3
		c-0.6-1.6-0.9-3.3-0.9-5c0-2.3,0.3-4.2,1-5.9c0.7-1.7,1.8-3.1,3.4-4.3c1.6-1.2,3.6-2,6.1-2.6c2.5-0.6,5.6-0.9,9.2-0.9
		c2.1,0,4.1,0.1,5.9,0.2c1.9,0.1,3.3,0.3,4.2,0.4c0-1.9-0.3-3.5-0.9-4.8c-0.6-1.3-1.5-2.3-2.6-3c-1.1-0.7-2.4-1.2-4-1.5
		c-1.5-0.3-3.2-0.4-5.1-0.4c-3.1,0-5.6,0.4-7.5,1.1c-1.9,0.7-3.1,1.3-3.7,1.8c-0.3-0.3-0.8-0.8-1.4-1.6c-0.6-0.8-0.9-1.7-0.9-2.8
		c0-0.8,0.2-1.5,0.6-2.3c0.4-0.7,1.1-1.4,2.2-2c1-0.6,2.4-1,4.2-1.4c1.8-0.3,4-0.5,6.7-0.5c3.2,0,6.2,0.3,8.9,1c2.7,0.6,5,1.6,6.9,3
		c1.9,1.4,3.4,3.2,4.5,5.4c1.1,2.3,1.6,5,1.6,8.2V73.2z M304.8,54.9c-0.6-0.1-1.6-0.3-3.1-0.5c-1.5-0.2-3.8-0.3-6.8-0.3
		c-3.7,0-6.5,0.6-8.2,1.7c-1.7,1.1-2.6,2.9-2.6,5.3c0,1,0.2,1.9,0.5,2.7c0.4,0.8,1,1.5,1.9,2.1c0.9,0.6,2.1,1,3.6,1.3
		c1.5,0.3,3.4,0.5,5.6,0.5c2.5,0,4.5-0.1,6-0.3c1.5-0.2,2.5-0.3,3-0.5V54.9z M324.8,46.7c0-5.1,1.6-9,4.7-11.7
		c3.1-2.8,7.4-4.2,12.9-4.2c3.5,0,6.3,0.5,8.4,1.4c2.2,1,3.3,2.4,3.3,4.4c0,0.9-0.3,1.8-0.8,2.7c-0.5,0.9-1,1.4-1.3,1.6
		c-0.9-0.4-2.1-0.9-3.5-1.2c-1.4-0.4-2.9-0.6-4.7-0.6c-6.4,0-9.6,3.4-9.6,10.2v23.9h-9.4V46.7z"/>
</g>
<linearGradient id="SVGID_1_" gradientUnits="userSpaceOnUse" x1="0" y1="53.519" x2="72.7243" y2="53.519">
	<stop  offset="0.1622" style="stop-color:#0894FF"/>
	<stop  offset="1" style="stop-color:#77C8FF"/>
</linearGradient>
<path fill="url(#SVGID_1_)" d="M62.8,87.1H15.4C6.9,87.1,0,80.2,0,71.7l0.2-51.8l29.5,0.3l41.5,52.5c0,0,0.4,0.5,0.5,0.7
	c2.9,5.2,0,12.2-6.1,13.6c-0.2,0-0.9,0.1-1.3,0.2C63.6,87.1,62.9,87.1,62.8,87.1z"/>
<linearGradient id="SVGID_2_" gradientUnits="userSpaceOnUse" x1="37.6394" y1="40.6771" x2="1.516" y2="72.9163">
	<stop  offset="0.2391" style="stop-color:#000000;stop-opacity:0.75"/>
	<stop  offset="0.4043" style="stop-color:#4A4A4A;stop-opacity:0.8043"/>
	<stop  offset="0.5643" style="stop-color:#8B8B8B;stop-opacity:0.8568"/>
	<stop  offset="0.7083" style="stop-color:#BDBDBD;stop-opacity:0.9041"/>
	<stop  offset="0.8334" style="stop-color:#E1E1E1;stop-opacity:0.9453"/>
	<stop  offset="0.9349" style="stop-color:#F7F7F7;stop-opacity:0.9786"/>
	<stop  offset="1" style="stop-color:#FFFFFF"/>
</linearGradient>
<path fill="url(#SVGID_2_)" d="M43.6,78c0,0-3.6,3.4-7.4,3.8c-4.3,0.5-7.5-0.2-10.4-1c-3.4-0.9-25.5-10-25.5-10L0.1,58.3L0.1,31.6
	L43.6,78z"/>
<linearGradient id="SVGID_3_" gradientUnits="userSpaceOnUse" x1="64.4456" y1="57.4124" x2="-2.6401" y2="10.4385">
	<stop  offset="1.262315e-02" style="stop-color:#0894FF"/>
	<stop  offset="1" style="stop-color:#77C8FF"/>
</linearGradient>
<path fill="url(#SVGID_3_)" d="M0,30.7v-21C0,4.4,4.4,0,9.7,0l26.1,0c19.4,0,29.7,11.7,33.7,21.3c2.7,6.4,2.7,12,2.7,12
	c0,9.8-3.5,19.1-9.7,26.5c-1,1.1-5.1,5.3-7.9,8c-4.1,3.9-9.8,9.2-13.1,11.8c-3.8,2.8-9.2,2.3-12.7-1.1L14.5,65C5.2,56,0,43.6,0,30.7
	z"/>
<path opacity="0.9" fill-rule="evenodd" clip-rule="evenodd" fill="#FFFFFF" d="M53.8,23.6l-1.9-6.1c-0.7-1.8-3-3.3-4.9-3.3H22.2
	c-1.9,0-4.2,1.5-4.9,3.3l-1.9,6.1c-5.6-0.7-4.9,5.4-2.2,5.4l-0.4,0.9c-0.7,1.7-1.3,4.6-1.3,6.4v9l2.4,0.1v2.9c0,1.5,1.2,2.7,2.7,2.7
	h3.2c1.5,0,2.7-1.2,2.7-2.7v-3h24.2v3c0,1.5,1.2,2.7,2.7,2.7h3.2c1.5,0,2.7-1.2,2.7-2.7v-3.2l2.4-0.3v-8.6c0-1.8-0.6-4.7-1.3-6.4
	L56,29C58.1,29,59.4,22.5,53.8,23.6L53.8,23.6z M21.2,33.7c1.9,0,3.4,1.5,3.4,3.4c0,1.9-1.5,3.4-3.4,3.4c-1.9,0-3.4-1.5-3.4-3.4
	C17.9,35.2,19.4,33.7,21.2,33.7L21.2,33.7z M47.6,33.7c1.9,0,3.4,1.5,3.4,3.4c0,1.9-1.5,3.4-3.4,3.4c-1.9,0-3.4-1.5-3.4-3.4
	C44.3,35.2,45.8,33.7,47.6,33.7L47.6,33.7z M17.2,27.5l3.2-9.2c0.5-1.1,1.8-2,2.9-2h22.3c1.2,0,2.5,0.9,2.9,2l3.2,9.2
	c0.5,1.1-0.1,2-1.3,2h-32C17.4,29.5,16.8,28.6,17.2,27.5L17.2,27.5z"/>
</svg>
