<?xml version="1.0" encoding="iso-8859-1"?>
<!-- Generator: Adobe Illustrator 19.0.0, SVG Export Plug-In . SVG Version: 6.00 Build 0)  -->
<svg version="1.1" id="Capa_1" xmlns="http://www.w3.org/2000/svg" xmlns:xlink="http://www.w3.org/1999/xlink" x="0px" y="0px"
	 viewBox="0 0 511.92 511.92" style="enable-background:new 0 0 511.92 511.92;" xml:space="preserve">
<g>
	<g transform="translate(1)">
		<path style="fill:#00838F;" d="M498.575,52.601c-2.236-1.605-5.147-1.929-7.68-0.853l-14.336,5.803L58.682,226.169l-51.2,21.248
			l154.709,62.635h0.171v0.085l39.595,138.325l1.792,6.144c0.834,2.909,3.145,5.158,6.075,5.913c2.93,0.754,6.041-0.099,8.175-2.243
			l79.104-80.896l7.083-7.253l108.288,42.581l8.021,3.157c4.793,1.96,10.222,1.606,14.72-0.96c4.498-2.566,7.566-7.058,8.32-12.181
			l58.709-341.248C503.001,58.041,501.536,54.499,498.575,52.601z M248.122,346.66l0.256,0.085l-0.427,0.512L248.122,346.66z"/>
		<path style="fill:#00BCD4;" d="M476.559,57.55L58.682,226.169l-51.2,21.248l154.709,62.635h0.171v0.085l39.595,138.325
			l76.629-78.336l18.517,7.253l7.083-7.253l108.288,42.581c2.944-2.577,4.879-6.115,5.461-9.984l58.709-341.248
			C476.917,60.178,476.888,58.835,476.559,57.55z M222.351,347.257l0.171-0.597l0.256,0.085L222.351,347.257z"/>
		<path style="fill:#00695C;" d="M304.186,370.126l-86.187,88.149c1.005-1.093,1.736-2.409,2.133-3.84l27.819-107.179l0.427-0.512
			l37.035,15.531l16.555,6.997L304.186,370.126z"/>
		<path style="fill:#009688;" d="M499.207,53.062L248.378,346.745l-0.256-0.085l-0.171,0.597l-27.819,107.179
			c-0.397,1.431-1.129,2.747-2.133,3.84c-2.135,2.144-5.245,2.998-8.175,2.243c-2.93-0.754-5.242-3.004-6.075-5.913l-41.387-144.469
			v-0.085h-0.085v-0.085L499.207,53.062z"/>
	</g>
	<path d="M173.175,313.252l207.36-154.453c2.65-1.741,4.117-4.807,3.808-7.963c-0.309-3.156-2.342-5.88-5.279-7.074
		c-2.937-1.194-6.295-0.661-8.718,1.384L161.92,300.324L11.682,239.507c-4.36-1.729-9.298,0.384-11.057,4.732
		s0.321,9.3,4.657,11.089l151.04,61.116l40.277,140.612c2.097,7.263,8.756,12.254,16.316,12.228h0.196
		c4.121-0.074,8.07-1.663,11.093-4.463c0.298-0.179,0.583-0.379,0.853-0.597l82.483-84.344l110.592,43.853
		c7.107,3.019,15.214,2.565,21.939-1.229c6.93-3.844,11.682-10.689,12.86-18.526l27.913-186.675l30.72-154.121
		c1.278-6.188-0.948-12.577-5.794-16.631c-4.773-3.978-11.344-5.013-17.109-2.697L56.482,218.293
		c-4.371,1.767-6.482,6.744-4.715,11.115c1.767,4.371,6.744,6.482,11.115,4.715l412.86-166.588l-204.8,241.545
		c-3.047,3.596-2.602,8.981,0.994,12.028c3.596,3.047,8.981,2.602,12.028-0.994L491.861,74.899l-27.785,139.469l-27.989,187.025
		c-0.384,2.617-1.96,4.909-4.267,6.204c-2.212,1.235-4.877,1.358-7.194,0.333l-116.369-45.756l-55.842-23.381
		c-4.345-1.824-9.346,0.22-11.17,4.565c-0.186,0.585-0.307,1.189-0.358,1.801h-0.205l-27.725,107.059L173.175,313.252z
		 M254.89,358.35l28.211,11.844l7.27,2.884l-53.495,54.707L254.89,358.35z"/>
</g>
<g>
</g>
<g>
</g>
<g>
</g>
<g>
</g>
<g>
</g>
<g>
</g>
<g>
</g>
<g>
</g>
<g>
</g>
<g>
</g>
<g>
</g>
<g>
</g>
<g>
</g>
<g>
</g>
<g>
</g>
</svg>
